<?xml version="1.0" encoding="UTF-8" standalone="no"?> <!-- Created with Vectornator for iOS (http://vectornator.io/) --><!DOCTYPE svg PUBLIC "-//W3C//DTD SVG 1.1//EN" "http://www.w3.org/Graphics/SVG/1.1/DTD/svg11.dtd">
<svg height="100%" style="fill-rule:nonzero;clip-rule:evenodd;stroke-linecap:round;stroke-linejoin:round;" xmlns:xlink="http://www.w3.org/1999/xlink" xmlns="http://www.w3.org/2000/svg" xml:space="preserve" width="100%" xmlns:vectornator="http://vectornator.io" version="1.1" viewBox="0 0 1066 773.96">
<style type="text/css">
.blinking{
    animation:blinkingText 1.2s infinite;
}
@keyframes blinkingText{
    0%{     color: #000;    }
    49%{    color: #000; }
    60%{    color: transparent; }
    99%{    color:transparent;  }
    100%{   color: #000;    }
}
</style>
<metadata>
<vectornator:setting key="DimensionsVisible" value="0"/>
<vectornator:setting key="PencilOnly" value="1"/>
<vectornator:setting key="SnapToPoints" value="0"/>
<vectornator:setting key="OutlineMode" value="0"/>
<vectornator:setting key="CMYKEnabledKey" value="0"/>
<vectornator:setting key="RulersVisible" value="1"/>
<vectornator:setting key="SnapToEdges" value="0"/>
<vectornator:setting key="GuidesVisible" value="0"/>
<vectornator:setting key="DisplayWhiteBackground" value="0"/>
<vectornator:setting key="doHistoryDisabled" value="0"/>
<vectornator:setting key="SnapToGuides" value="1"/>
<vectornator:setting key="TimeLapseWatermarkDisabled" value="0"/>
<vectornator:setting key="Units" value="Points"/>
<vectornator:setting key="DynamicGuides" value="1"/>
<vectornator:setting key="IsolateActiveLayer" value="0"/>
<vectornator:setting key="SnapToGrid" value="0"/>
</metadata>
<defs/>
<g id="Untitled" vectornator:layerName="Untitled">
<path d="M995.19+369.87C995.78+363.1+996.09+356.22+996.09+349.27C996.09+240.44+922.25+152.21+831.17+152.21C802.17+152.21+774.83+161.21+751.17+176.96C686.7+126.96+602.53+96.75+510.45+96.75C360.62+96.75+231.74+176.82+174.56+291.65C171.39+291.43+168.19+291.31+164.96+291.31C73.83+291.31+0+379.53+0+488.36C0+528.36+10+565.59+27.14+596.67L27.14+596.67C27.14+694.58+105.59+773.98+202.36+773.98L324.36+773.98L324.9+773.05C332.07+761.41+349.24+758.5+361.2+765.11C364.36+766.85+367.3+769.11+370.83+769.91C384.96+772.91+394.45+750.18+408.75+752.39C415.93+753.5+421.53+760.92+428.75+760.16C433.54+759.65+437.17+755.64+441.67+753.94C448.88+751.2+456.19+755+461.24+761.17C464.17+752.74+464.15+742.75+468.89+735.02C476.06+723.38+493.23+720.47+505.19+727.08C508.35+728.82+511.29+731.08+514.82+731.88C528.95+734.88+538.44+712.15+552.74+714.36C559.92+715.47+565.52+722.89+572.74+722.13C577.53+721.62+581.16+717.61+585.66+715.91C596.88+711.64+608.37+723.23+611.13+734.91C612.199+740.056+612.765+745.294+612.82+750.55C622.5+745.86+630.68+732.67+641.73+734.38C648.91+735.49+654.51+742.91+661.73+742.15C666.52+741.64+670.15+737.63+674.65+735.93C685.87+731.66+697.36+743.25+700.12+754.93C701.59+761.13+701.69+767.57+701.94+773.93L904.09+773.93C980.09+773.93+1041.67+711.61+1041.67+634.73L1041.67+634.73C1057.09+604.73+1066+569.45+1066+531.67C1066+464.67+1038+405.47+995.19+369.87Z" opacity="0.282692" fill="#8a67a1"/>
<path d="M737.52+401.2C735.107+388.766+725.086+379.223+712.549+377.42C700.013+375.617+687.709+381.95+681.89+393.2C669.316+394.57+660.007+405.532+660.693+418.162C661.38+430.792+671.821+440.681+684.47+440.68L736.13+440.68C747.071+440.647+755.94+431.801+756+420.86C756.039+410.439+747.924+401.805+737.52+401.2ZM714.67+412.92L714.67+427.98L702+427.98L702+412.88L688.45+412.88L708.32+393.01L728.18+412.88L714.67+412.92Z" opacity="1" fill="#ffffff"/>
<path d="M889.52+648.2C887.107+635.766+877.086+626.223+864.549+624.42C852.013+622.617+839.709+628.95+833.89+640.2C821.316+641.57+812.007+652.532+812.693+665.162C813.38+677.792+823.821+687.681+836.47+687.68L888.13+687.68C899.071+687.647+907.94+678.801+908+667.86C908.039+657.439+899.924+648.805+889.52+648.2ZM866.67+659.92L866.67+674.98L854+674.98L854+659.88L840.45+659.88L860.32+640.01L880.18+659.88L866.67+659.92Z" opacity="1" fill="#ffffff"/>
<path d="M673+549.98L673+525.68L684.2+536.88L687+533.98L671+517.98L655+533.98L657.8+536.78L669+525.68L669+549.98L673+549.98Z" opacity="1" fill="#ffffff"/>
<path d="M114+582.98L114+558.68L125.2+569.88L128+566.98L112+550.98L96+566.98L98.8+569.78L110+558.68L110+582.98L114+582.98Z" opacity="1" fill="#ffffff"/>
<path d="M672+320.98L672+302.77L680.4+311.17L682.5+309L670.5+297L658.5+309L660.6+311.1L669+302.77L669+320.98L672+320.98Z" opacity="1" fill="#ffffff"/>
<path d="M453+188.98L453+170.77L461.4+179.17L463.5+177L451.5+165L439.5+177L441.6+179.1L450+170.77L450+188.98L453+188.98Z" opacity="1" fill="#ffffff"/>
<path d="M371+368.98L371+350.77L379.4+359.17L381.5+357L369.5+345L357.5+357L359.6+359.1L368+350.77L368+368.98L371+368.98Z" opacity="1" fill="#ffffff"/>
<path d="M885+452.98L885+434.77L893.4+443.17L895.5+441L883.5+429L871.5+441L873.6+443.1L882+434.77L882+452.98L885+452.98Z" opacity="1" fill="#ffffff"/>
<path d="M353+613.98L353+595.77L361.4+604.17L363.5+602L351.5+590L339.5+602L341.6+604.1L350+595.77L350+613.98L353+613.98Z" opacity="1" fill="#ffffff"/>
<path d="M783+293C783+289.686+785.686+287+789+287C792.314+287+795+289.686+795+293C795+296.314+792.314+299+789+299C785.686+299+783+296.314+783+293Z" opacity="1" fill="#ffffff"/>
<path d="M218+277C218+273.686+220.686+271+224+271C227.314+271+230+273.686+230+277C230+280.314+227.314+283+224+283C220.686+283+218+280.314+218+277Z" opacity="1" fill="#ffffff"/>
<path d="M395+429C395+425.686+397.686+423+401+423C404.314+423+407+425.686+407+429C407+432.314+404.314+435+401+435C397.686+435+395+432.314+395+429Z" opacity="1" fill="#ffffff"/>
<path d="M922+531C922+529.343+923.343+528+925+528C926.657+528+928+529.343+928+531C928+532.657+926.657+534+925+534C923.343+534+922+532.657+922+531Z" opacity="1" fill="#ffffff"/>
<path d="M697+614C697+612.343+698.343+611+700+611C701.657+611+703+612.343+703+614C703+615.657+701.657+617+700+617C698.343+617+697+615.657+697+614Z" opacity="1" fill="#ffffff"/>
<path d="M312+684C312+682.343+313.343+681+315+681C316.657+681+318+682.343+318+684C318+685.657+316.657+687+315+687C313.343+687+312+685.657+312+684Z" opacity="1" fill="#ffffff"/>
<path d="M93+441C93+439.343+94.3431+438+96+438C97.6569+438+99+439.343+99+441C99+442.657+97.6569+444+96+444C94.3431+444+93+442.657+93+441Z" opacity="1" fill="#ffffff"/>
<path d="M122+377C122+375.343+123.343+374+125+374C126.657+374+128+375.343+128+377C128+378.657+126.657+380+125+380C123.343+380+122+378.657+122+377Z" opacity="1" fill="#ffffff"/>
<path d="M767+713C767+711.343+768.343+710+770+710C771.657+710+773+711.343+773+713C773+714.657+771.657+716+770+716C768.343+716+767+714.657+767+713Z" opacity="1" fill="#ffffff"/>
<path d="M212+609C212+607.343+213.343+606+215+606C216.657+606+218+607.343+218+609C218+610.657+216.657+612+215+612C213.343+612+212+610.657+212+609Z" opacity="1" fill="#ffffff"/>
<path d="M281+334C281+332.343+282.343+331+284+331C285.657+331+287+332.343+287+334C287+335.657+285.657+337+284+337C282.343+337+281+335.657+281+334Z" opacity="1" fill="#ffffff"/>
<path d="M386.5+227.5L371+227.5L371+212L369+212L369+227.5L353.5+227.5L353.5+229.5L369+229.5L369+245L371+245L371+229.5L386.5+229.5L386.5+227.5Z" opacity="1" fill="#ffffff"/>
<path d="M764+513.89L754.61+513.89L754.61+504.5L753.39+504.5L753.39+513.89L744+513.89L744+515.11L753.39+515.11L753.39+524.5L754.61+524.5L754.61+515.11L764+515.11L764+513.89Z" opacity="1" fill="#ffffff"/>
<path d="M707+688.89L697.61+688.89L697.61+679.5L696.39+679.5L696.39+688.89L687+688.89L687+690.11L696.39+690.11L696.39+699.5L697.61+699.5L697.61+690.11L707+690.11L707+688.89Z" opacity="1" fill="#ffffff"/>
<path d="M240+666.89L230.61+666.89L230.61+657.5L229.39+657.5L229.39+666.89L220+666.89L220+668.11L229.39+668.11L229.39+677.5L230.61+677.5L230.61+668.11L240+668.11L240+666.89Z" opacity="1" fill="#ffffff"/>
<path d="M174+490.89L164.61+490.89L164.61+481.5L163.39+481.5L163.39+490.89L154+490.89L154+492.11L163.39+492.11L163.39+501.5L164.61+501.5L164.61+492.11L174+492.11L174+490.89Z" opacity="1" fill="#ffffff"/>
<path d="M453.46+669.68L453.53+664.05L450.15+664.01L450.08+669.64L444.25+686.48L458.89+686.65L453.46+669.68Z" opacity="1" fill="#3f3d56"/>
<path d="M468.15+670L468.22+664.23L464.75+664.18L464.68+669.96L458.7+687.23L473.72+687.4L468.15+670Z" opacity="1" fill="#3f3d56"/>
<path d="M482.75+670.03L482.82+664.4L479.44+664.36L479.37+669.99L473.54+686.83L488.19+687L482.75+670.03Z" opacity="1" fill="#3f3d56"/>
<path d="M587.17+671.42L587.24+665.64L583.77+665.6L583.7+671.38L577.72+688.64L592.74+688.82L587.17+671.42Z" opacity="1" fill="#3f3d56"/>
<path d="M602.19+671.6L602.26+665.82L598.79+665.78L598.72+671.56L592.74+688.82L607.76+689L602.19+671.6Z" opacity="1" fill="#3f3d56"/>
<path d="M617.21+671.78L617.28+666L613.81+665.96L613.74+671.74L607.76+689L622.78+689.18L617.21+671.78Z" opacity="1" fill="#3f3d56"/>
<path d="M518.99+670.61L519.06+664.83L515.59+664.79L515.52+670.57L509.54+687.83L524.56+688.01L518.99+670.61Z" opacity="1" fill="#3f3d56"/>
<path d="M534.01+670.79L534.08+665.01L530.62+664.97L530.55+670.75L524.56+688.01L539.58+688.19L534.01+670.79Z" opacity="1" fill="#3f3d56"/>
<path d="M549.03+670.97L549.1+665.19L545.64+665.15L545.57+670.93L539.58+688.19L554.61+688.37L549.03+670.97Z" opacity="1" fill="#3f3d56"/>
<path d="M508.76+266.58C508.55+246.68+485.11+211.4+472.46+211.25C459.81+211.1+436.68+245.82+436+265.71L435.4+265.71L430.63+665.52L504.01+666.39L508.78+266.59L508.76+266.58Z" opacity="1" fill="#3f3d56"/>
<path d="M642.8+268.18C642.59+248.28+619.15+213+606.5+212.85C593.85+212.7+570.72+247.42+570.05+267.31L569.45+267.31L564.68+667.12L638.06+667.99L642.83+268.19L642.8+268.18Z" opacity="1" fill="#3f3d56"/>
<path d="M576.86+80.92C576.75+51.75+553.5+0.150005+540.86+3.8147e-06C528.22-0.149998+504.86+50.89+504.09+80L503.5+80L496.5+666.24L569.87+667.12L576.87+80.87L576.86+80.92Z" opacity="1" fill="#2f2e41"/>
<g opacity="0.1">
<path d="M574.87+274.92C582.46+257.21+597.28+238.74+606.5+238.85C618.5+238.99+640.12+270.64+642.57+290.85L642.83+269.14L642.83+269.14C642.62+249.24+619.18+213.96+606.53+213.81C597.43+213.7+582.89+231.69+575.21+249.19L574.87+274.92Z" opacity="0.1" fill="#000000"/>
<path d="M435.41+291.7L436.01+291.7C436.68+271.81+459.82+237.09+472.46+237.24C480.72+237.34+493.57+252.41+501.56+268.4L503.5+106.04L504.09+106.04C504.87+76.88+528.22+25.84+540.86+26.04C552.8+26.18+574.22+72.25+576.64+101.94L576.87+81.94L576.87+81.94C576.76+52.77+553.51+1.17001+540.87+1.02C528.23+0.870003+504.87+51.91+504.1+81.07L503.51+81.07L501.57+243.43C493.57+227.43+480.73+212.37+472.47+212.27C459.83+212.12+436.69+246.84+436.02+266.73L435.42+266.73L430.65+666.54L430.95+666.54L435.41+291.7Z" opacity="0.1" fill="#000000"/>
</g>
<path d="M540.848+25.3855L540.858+25.3856C544.685+25.431+547.75+28.5703+547.705+32.3973L547.513+48.5862C547.467+52.4133+544.328+55.4789+540.501+55.4335L540.491+55.4333C536.664+55.3879+533.598+52.2486+533.644+48.4216L533.836+32.2327C533.881+28.4057+537.021+25.34+540.848+25.3855Z" opacity="1" fill="#ececf3"/>
<g opacity="1">
<path d="M547.68+487.125C547.849+480.018+544.514+475.68+539.105+475.551L539.086+475.55C534.653+475.445+532.189+478.043+530.877+483.912L530.2+486.885C529.479+490.111+528.409+491.531+526.632+491.489L526.613+491.488C524.602+491.441+523.259+489.592+523.311+486.565C523.381+483.655+524.776+481.657+526.99+481.416L527.224+481.402L527.357+475.838L526.985+475.848C522.039+476.004+518.683+479.929+518.527+486.451C518.379+492.699+521.669+497.271+526.824+497.394L526.844+497.394C531.081+497.495+533.803+494.746+535.049+489.208L535.705+486.254C536.511+482.776+537.5+481.413+539.414+481.458L539.433+481.459C541.581+481.51+542.958+483.594+542.88+486.855C542.803+490.077+541.381+492.368+539.186+492.686L538.97+492.72L538.837+498.285L539.15+498.273C544.352+498.065+547.52+493.823+547.68+487.125Z" opacity="1" fill="#ffffff"/>
<path d="M523.981+469.115C524.022+467.396+522.706+466.037+521.085+465.998C519.465+465.959+518.086+467.255+518.045+468.973C518.004+470.692+519.32+472.051+520.94+472.09C522.561+472.129+523.94+470.833+523.981+469.115ZM547.539+472.528L547.675+466.827L526.743+466.328L526.607+472.03L547.539+472.528Z" opacity="1" fill="#ffffff"/>
<path d="M547.765+463.019L547.901+457.318L535.873+457.031C533.14+456.966+531.304+455.301+531.365+452.743C531.426+450.185+533.018+448.934+535.752+448.999L548.092+449.292L548.228+443.591L534.716+443.269C529.815+443.153+526.805+445.699+526.695+450.307C526.62+453.47+528.033+455.653+530.409+456.784L530.406+456.901L526.97+456.819L526.834+462.521L547.765+463.019Z" opacity="1" fill="#ffffff"/>
<path d="M555.811+430.369C555.96+424.082+552.871+420.082+548.204+419.97L527.859+419.486L527.723+425.187L531.296+425.273L531.293+425.39C528.826+426.464+527.209+428.711+527.139+431.66C527.013+436.951+530.899+440.326+537.576+440.485L537.596+440.485C544.098+440.64+548.08+437.492+548.205+432.259C548.277+429.233+546.946+426.857+544.786+425.711L544.788+425.594L547.991+425.67C550.334+425.726+551.819+427.324+551.749+430.273C551.693+432.655+550.758+434.156+549.713+434.581L549.574+434.636L549.442+440.181L549.619+440.166C552.99+439.699+555.673+436.129+555.811+430.369ZM544.073+430.187C544.005+433.038+541.639+434.779+537.871+434.69L537.851+434.689C534.102+434.6+531.841+432.729+531.909+429.898C531.975+427.125+534.343+425.326+538.072+425.414L538.091+425.415C541.84+425.504+544.14+427.395+544.073+430.187Z" opacity="1" fill="#ffffff"/>
<path d="M549.478+409.138C549.554+405.975+548.121+403.792+545.745+402.661L545.748+402.544L549.204+402.626L549.339+396.925L528.408+396.426L528.272+402.128L540.3+402.414C543.033+402.479+544.869+404.144+544.808+406.702C544.747+409.26+543.135+410.511+540.402+410.446L528.081+410.153L527.945+415.854L541.457+416.176C546.358+416.293+549.369+413.746+549.478+409.138Z" opacity="1" fill="#ffffff"/>
<path d="M549.431+393.078L549.567+387.376L521.391+386.706L521.255+392.407L549.431+393.078Z" opacity="1" fill="#ffffff"/>
<path d="M550.139+377.309C550.204+374.556+548.949+372.299+546.829+371.057L546.832+370.939L549.956+371.014L550.092+365.312L535.741+364.971C531.523+364.87+528.648+368.299+528.519+373.707C528.387+379.233+531.081+382.619+534.94+383.023L535.173+383.048L535.298+377.835L535.123+377.792C533.782+377.486+532.817+376.174+532.868+374.045C532.921+371.82+534.101+370.636+535.956+370.681L537.245+370.711L537.434+375.893C537.643+381.095+539.798+384.096+543.606+384.187L543.645+384.188C547.335+384.276+550.039+381.507+550.139+377.309ZM543.486+378.538L543.447+378.537C541.963+378.502+541.054+377.327+540.969+375.118L540.799+370.796L542.302+370.832C544.489+370.884+546.085+372.797+546.024+375.355C545.977+377.327+545.029+378.575+543.486+378.538Z" opacity="1" fill="#ffffff"/>
<path d="M550.18+361.642L550.315+355.94L538.6+355.661C535.554+355.589+533.914+353.908+533.981+351.097C534+350.277+534.136+349.498+534.342+349.034L529.324+348.915C529.197+349.342+529.085+349.925+529.07+350.55C529.012+352.991+530.475+354.725+533.038+355.411L533.035+355.529L529.384+355.442L529.248+361.143L550.18+361.642Z" opacity="1" fill="#ffffff"/>
<path d="M526.97+343.564C527.011+341.846+525.696+340.486+524.075+340.448C522.454+340.409+521.076+341.705+521.035+343.423C520.994+345.141+522.309+346.501+523.93+346.54C525.551+346.578+526.93+345.283+526.97+343.564ZM550.529+346.978L550.664+341.276L529.733+340.778L529.597+346.479L550.529+346.978Z" opacity="1" fill="#ffffff"/>
<path d="M551.383+329.161C551.411+327.97+551.316+327.049+551.234+326.403L547.055+326.303C547.086+326.656+547.135+327.028+547.123+327.536C547.082+329.254+546.398+330.117+544.445+330.07L534.292+329.829L534.383+326.001L530.087+325.899L529.996+329.726L524.88+329.604L524.743+335.365L529.859+335.486L529.79+338.396L534.085+338.498L534.155+335.589L544.933+335.845C549.424+335.952+551.272+333.808+551.383+329.161Z" opacity="1" fill="#ffffff"/>
<path d="M558.064+320.138C558.175+315.491+556.66+312.641+551.759+310.884L530.628+303.191L530.485+309.205L546.742+314.027L546.738+314.183L530.27+318.206L530.121+324.474L551.229+317.572L551.906+317.842C553.32+318.384+553.785+319.333+553.745+321.031C553.725+321.871+553.592+322.532+553.504+322.94L557.741+323.041C557.874+322.38+558.038+321.251+558.064+320.138Z" opacity="1" fill="#ffffff"/>
</g>
<g opacity="0.664635">
<path d="M311.531+534.831C311.831+534.215+312.097+533.567+312.327+532.888C314.96+525.118+310.978+515.81+302.594+513.563C301.688+502.179+293.688+494.37+284.653+493.037C274.312+491.513+264.839+498.082+261.687+508.523C257.888+507.177+254.186+507.341+250.697+509.38C249.114+510.112+247.666+511.192+246.367+512.613C244.46+514.699+243.22+517.332+242.715+520.108C241.967+520.226+241.232+520.344+240.539+520.592C236.499+522.041+233.95+525.023+233.251+529.515C232.816+532.312+233.694+535.102+234.184+536.229C236.119+540.684+240.606+543.209+245.165+542.541C245.392+542.508+245.722+542.61+245.917+542.774C246.158+549.894+249.615+556.191+254.801+559.788C263.122+565.56+273.828+563.782+280.582+555.867C283.476+558.827+286.92+560.265+290.966+559.743C294.989+559.224+298.113+557.004+300.392+553.394C301.445+553.677+302.443+554.085+303.475+554.198C307.517+554.64+310.799+553.033+313.207+549.398C314.129+548.007+315+546.204+315+543.044C315.001+539.788+313.708+536.821+311.531+534.831Z" opacity="1" fill="#c7ede6"/>
<path d="M296.795+528C296.795+528+308.486+528+308.557+528C311.257+528+313.445+525.811+313.445+523.111C313.445+520.756+311.779+518.79+309.561+518.327C309.587+518.121+309.604+517.912+309.604+517.699C309.604+514.903+307.337+512.636+304.541+512.636C302.89+512.636+301.428+513.43+300.504+514.653C300.268+511.54+297.487+509.139+294.234+509.537C291.855+509.828+289.888+511.667+289.45+514.023C289.31+514.779+289.324+515.512+289.464+516.2C288.826+515.513+287.918+515.081+286.907+515.081C285.057+515.081+283.546+516.522+283.427+518.342C282.587+518.156+281.673+518.168+280.71+518.53C278.87+519.221+277.56+520.953+277.483+522.917C277.374+525.706+279.603+528.002+282.368+528.002C282.578+528.002+283.316+528.002+283.486+528.002L293.637+528.002" opacity="1" fill="#fdfcef"/>
<path d="M308.557+528.5L296.795+528.5C296.519+528.5+296.295+528.276+296.295+528C296.295+527.724+296.519+527.5+296.795+527.5L308.557+527.5C310.976+527.5+312.945+525.531+312.945+523.111C312.945+521.045+311.479+519.239+309.459+518.816C309.205+518.763+309.034+518.524+309.065+518.265C309.088+518.079+309.104+517.891+309.104+517.699C309.104+515.182+307.057+513.136+304.541+513.136C303.103+513.136+301.776+513.799+300.903+514.954C300.778+515.12+300.566+515.192+300.363+515.132C300.164+515.073+300.021+514.898+300.006+514.691C299.902+513.314+299.227+512.02+298.156+511.142C297.074+510.254+295.699+509.86+294.296+510.033C292.13+510.299+290.34+511.976+289.943+514.114C289.818+514.782+289.823+515.45+289.955+516.1C290+516.32+289.893+516.541+289.694+516.644C289.496+516.748+289.252+516.705+289.099+516.54C288.524+515.922+287.746+515.581+286.909+515.581C285.34+515.581+284.031+516.808+283.928+518.374C283.918+518.52+283.846+518.654+283.729+518.741C283.612+518.83+283.46+518.859+283.321+518.83C282.481+518.645+281.684+518.698+280.888+518.997C279.219+519.625+278.052+521.208+277.985+522.936C277.938+524.143+278.372+525.286+279.207+526.154C280.042+527.022+281.165+527.501+282.371+527.501L293.64+527.501C293.916+527.501+294.14+527.725+294.14+528.001C294.14+528.277+293.916+528.501+293.64+528.501L282.37+528.501C280.891+528.501+279.511+527.914+278.485+526.848C277.46+525.782+276.927+524.379+276.985+522.898C277.068+520.772+278.495+518.829+280.536+518.062C281.336+517.762+282.163+517.664+283.004+517.763C283.38+515.941+285.001+514.581+286.909+514.581C287.593+514.581+288.263+514.761+288.853+515.091C288.853+514.705+288.888+514.319+288.96+513.932C289.436+511.37+291.58+509.359+294.175+509.041C295.853+508.836+297.495+509.307+298.791+510.369C299.794+511.192+300.507+512.32+300.829+513.562C301.841+512.646+303.148+512.136+304.543+512.136C307.61+512.136+310.106+514.632+310.106+517.699C310.106+517.782+310.104+517.865+310.099+517.947C312.353+518.621+313.947+520.724+313.947+523.111C313.946+526.083+311.529+528.5+308.557+528.5Z" opacity="1" fill="#472b29"/>
<path d="M293.962+517.232C292.154+517.113+290.597+518.362+290.486+520.021C290.472+520.227+290.481+520.43+290.511+520.627C290.162+520.233+289.646+519.966+289.053+519.927C287.968+519.856+287.031+520.572+286.895+521.547C286.698+521.493+286.492+521.457+286.279+521.443C284.697+521.339+283.335+522.432+283.237+523.884" opacity="1" fill="#fdfcef"/>
<path d="M283.238+524.133C283.233+524.133+283.227+524.133+283.221+524.132C283.083+524.123+282.979+524.004+282.988+523.866C283.094+522.279+284.573+521.072+286.295+521.192C286.432+521.201+286.568+521.218+286.704+521.245C286.977+520.276+287.963+519.598+289.07+519.678C289.495+519.705+289.893+519.838+290.233+520.06C290.233+520.041+290.235+520.023+290.236+520.004C290.357+518.21+292.023+516.844+293.979+516.983C294.117+516.992+294.221+517.111+294.212+517.249C294.203+517.387+294.086+517.511+293.946+517.481C292.289+517.37+290.838+518.518+290.736+520.038C290.724+520.223+290.732+520.408+290.759+520.59C290.776+520.699+290.718+520.808+290.618+520.855C290.52+520.902+290.399+520.877+290.325+520.794C290.003+520.43+289.546+520.211+289.037+520.177C288.106+520.139+287.262+520.732+287.143+521.581C287.133+521.652+287.093+521.716+287.033+521.756C286.972+521.795+286.9+521.807+286.829+521.788C286.642+521.737+286.452+521.705+286.261+521.691C284.821+521.598+283.574+522.587+283.486+523.9C283.478+524.032+283.369+524.133+283.238+524.133Z" opacity="1" fill="#472b29"/>
<path d="M310.537+518.9C308.838+518.099+306.873+518.666+306.148+520.167C306.058+520.353+305.991+520.546+305.947+520.741" opacity="1" fill="#fdfcef"/>
<path d="M305.947+520.991C305.928+520.991+305.91+520.989+305.891+520.984C305.757+520.954+305.673+520.819+305.703+520.685C305.753+520.469+305.827+520.258+305.923+520.059C306.706+518.437+308.823+517.817+310.644+518.674C310.769+518.734+310.822+518.882+310.763+519.007C310.704+519.133+310.554+519.183+310.43+519.127C308.858+518.384+307.038+518.899+306.373+520.275C306.293+520.441+306.232+520.617+306.19+520.796C306.163+520.912+306.061+520.991+305.947+520.991Z" opacity="1" fill="#472b29"/>
<path d="M241.196+526.867L231.166+526.867C230.89+526.867+230.666+526.643+230.666+526.367C230.666+526.091+230.89+525.867+231.166+525.867L241.196+525.867C241.472+525.867+241.696+526.091+241.696+526.367C241.696+526.643+241.473+526.867+241.196+526.867ZM244.077+526.867L242.631+526.867C242.355+526.867+242.131+526.643+242.131+526.367C242.131+526.091+242.355+525.867+242.631+525.867L244.077+525.867C244.353+525.867+244.577+526.091+244.577+526.367C244.577+526.643+244.353+526.867+244.077+526.867ZM248.132+526.867L245.586+526.867C245.31+526.867+245.086+526.643+245.086+526.367C245.086+526.091+245.31+525.867+245.586+525.867L248.132+525.867C248.408+525.867+248.632+526.091+248.632+526.367C248.632+526.643+248.408+526.867+248.132+526.867ZM248.132+528.732L238.516+528.732C238.24+528.732+238.016+528.508+238.016+528.232C238.016+527.956+238.24+527.732+238.516+527.732L248.132+527.732C248.408+527.732+248.632+527.956+248.632+528.232C248.632+528.508+248.408+528.732+248.132+528.732ZM236.784+528.732L236.204+528.732C235.928+528.732+235.704+528.508+235.704+528.232C235.704+527.956+235.928+527.732+236.204+527.732L236.784+527.732C237.06+527.732+237.284+527.956+237.284+528.232C237.284+528.508+237.06+528.732+236.784+528.732ZM234.407+528.732L232.951+528.732C232.675+528.732+232.451+528.508+232.451+528.232C232.451+527.956+232.675+527.732+232.951+527.732L234.407+527.732C234.683+527.732+234.907+527.956+234.907+528.232C234.907+528.508+234.683+528.732+234.407+528.732ZM243.543+525.002L238.516+525.002C238.24+525.002+238.016+524.778+238.016+524.502C238.016+524.226+238.24+524.002+238.516+524.002L243.543+524.002C243.819+524.002+244.043+524.226+244.043+524.502C244.043+524.778+243.819+525.002+243.543+525.002ZM243.543+523.137L242.286+523.137C242.01+523.137+241.786+522.913+241.786+522.637C241.786+522.361+242.01+522.137+242.286+522.137L243.543+522.137C243.819+522.137+244.043+522.361+244.043+522.637C244.043+522.913+243.819+523.137+243.543+523.137ZM240.274+530.597L238.515+530.597C238.239+530.597+238.015+530.373+238.015+530.097C238.015+529.821+238.239+529.597+238.515+529.597L240.274+529.597C240.55+529.597+240.774+529.821+240.774+530.097C240.774+530.373+240.551+530.597+240.274+530.597ZM294.374+500.59L284.344+500.59C284.068+500.59+283.844+500.366+283.844+500.09C283.844+499.814+284.068+499.59+284.344+499.59L294.374+499.59C294.65+499.59+294.874+499.814+294.874+500.09C294.874+500.366+294.65+500.59+294.374+500.59ZM297.255+500.59L295.809+500.59C295.533+500.59+295.309+500.366+295.309+500.09C295.309+499.814+295.533+499.59+295.809+499.59L297.255+499.59C297.531+499.59+297.755+499.814+297.755+500.09C297.755+500.366+297.532+500.59+297.255+500.59ZM301.31+500.59L298.764+500.59C298.488+500.59+298.264+500.366+298.264+500.09C298.264+499.814+298.488+499.59+298.764+499.59L301.31+499.59C301.586+499.59+301.81+499.814+301.81+500.09C301.81+500.366+301.586+500.59+301.31+500.59ZM299.284+496.861L289.667+496.861C289.391+496.861+289.167+496.637+289.167+496.361C289.167+496.085+289.391+495.861+289.667+495.861L299.284+495.861C299.56+495.861+299.784+496.085+299.784+496.361C299.784+496.637+299.56+496.861+299.284+496.861ZM287.936+496.861L287.356+496.861C287.08+496.861+286.856+496.637+286.856+496.361C286.856+496.085+287.08+495.861+287.356+495.861L287.936+495.861C288.212+495.861+288.436+496.085+288.436+496.361C288.436+496.637+288.212+496.861+287.936+496.861ZM285.559+496.861L284.103+496.861C283.827+496.861+283.603+496.637+283.603+496.361C283.603+496.085+283.827+495.861+284.103+495.861L285.559+495.861C285.835+495.861+286.059+496.085+286.059+496.361C286.059+496.637+285.835+496.861+285.559+496.861ZM296.721+498.725L291.693+498.725C291.417+498.725+291.193+498.501+291.193+498.225C291.193+497.949+291.417+497.725+291.693+497.725L296.721+497.725C296.997+497.725+297.221+497.949+297.221+498.225C297.221+498.501+296.997+498.725+296.721+498.725Z" opacity="1" fill="#ffffff"/>
<path d="M296.721+496.861L295.464+496.861C295.188+496.861+294.964+496.637+294.964+496.361C294.964+496.085+295.188+495.861+295.464+495.861L296.721+495.861C296.997+495.861+297.221+496.085+297.221+496.361C297.221+496.637+296.997+496.861+296.721+496.861ZM290.238+498.725L288.479+498.725C288.203+498.725+287.979+498.501+287.979+498.225C287.979+497.949+288.203+497.725+288.479+497.725L290.238+497.725C290.514+497.725+290.738+497.949+290.738+498.225C290.738+498.501+290.515+498.725+290.238+498.725Z" opacity="1" fill="#ffffff"/>
<path d="M288.618+514.11C289.736+513.767+290.931+514.4+291.131+515.05L296.637+532.973C297.124+534.558+296.491+535.754+295.373+536.097L259.673+547.064C259.02+547.265+258.341+547.132+257.821+546.764" opacity="1" fill="#00a5a5"/>
<path d="M259.047+547.708C258.501+547.708+257.964+547.539+257.503+547.213C257.255+547.037+257.196+546.694+257.371+546.446C257.546+546.199+257.89+546.138+258.138+546.314C258.542+546.601+259.044+546.679+259.512+546.538L295.212+535.571C295.624+535.444+295.932+535.171+296.104+534.779C296.302+534.33+296.305+533.76+296.112+533.133L290.606+515.21C290.51+514.899+289.648+514.37+288.78+514.634C288.49+514.723+288.182+514.56+288.093+514.27C288.004+513.98+288.167+513.672+288.458+513.583C289.873+513.148+291.367+513.94+291.658+514.888L297.164+532.811C297.435+533.693+297.416+534.527+297.111+535.221C296.811+535.905+296.251+536.403+295.535+536.621L259.835+547.588C259.575+547.669+259.309+547.708+259.047+547.708Z" opacity="1" fill="#472b29"/>
<path d="M290.007+535.029L258.595+544.678C256.311+545.38+253.869+544.085+253.167+541.801L249.008+528.261C248.306+525.977+249.601+523.535+251.885+522.833L283.297+513.184C285.581+512.482+288.023+513.777+288.725+516.061L292.884+529.601C293.586+531.885+292.291+534.327+290.007+535.029Z" opacity="1" fill="#77cbd2"/>
<path d="M257.323+545.47C255.208+545.47+253.246+544.101+252.594+541.977L248.435+528.438C247.635+525.833+249.104+523.061+251.709+522.261L283.121+512.612C284.38+512.225+285.716+512.355+286.885+512.973C288.055+513.593+288.912+514.627+289.299+515.885L293.458+529.425C293.844+530.683+293.716+532.02+293.096+533.19C292.476+534.359+291.442+535.216+290.184+535.602L258.772+545.251C258.29+545.4+257.803+545.47+257.323+545.47ZM284.568+513.593C284.201+513.593+283.833+513.648+283.473+513.758L252.061+523.407C250.088+524.013+248.976+526.112+249.582+528.086L253.741+541.625C254.346+543.597+256.447+544.706+258.419+544.104L289.831+534.455L289.831+534.455C290.783+534.163+291.565+533.514+292.035+532.627C292.505+531.74+292.603+530.729+292.31+529.776L288.151+516.236C287.859+515.285+287.21+514.503+286.323+514.033C285.772+513.742+285.172+513.593+284.568+513.593Z" opacity="1" fill="#472b29"/>
<path d="M275.781+519.025L253.755+525.791C254.174+527.157+253.484+528.579+252.214+528.97L255.422+539.414C256.693+539.024+258.063+539.815+258.483+541.181L288.137+532.072C287.717+530.706+288.407+529.282+289.678+528.892L286.47+518.448L286.47+518.448C285.2+518.838+283.83+518.048+283.41+516.682L280.747+517.5" opacity="1" fill="#42b7ba"/>
<path d="M258.483+541.506C258.344+541.506+258.215+541.416+258.172+541.277C257.993+540.695+257.615+540.214+257.109+539.921C256.611+539.633+256.044+539.564+255.518+539.726C255.436+539.753+255.347+539.744+255.27+539.703C255.194+539.663+255.137+539.594+255.112+539.512L251.904+529.068C251.851+528.896+251.947+528.714+252.119+528.662C253.216+528.325+253.81+527.081+253.445+525.89C253.392+525.718+253.488+525.536+253.66+525.484L275.686+518.717C275.857+518.663+276.039+518.761+276.092+518.932C276.145+519.104+276.049+519.286+275.877+519.338L254.145+526.015C254.404+527.335+253.766+528.648+252.615+529.168L255.645+539.03C256.249+538.922+256.875+539.037+257.436+539.36C257.994+539.681+258.428+540.179+258.684+540.782L287.748+531.854C287.622+531.211+287.702+530.555+287.982+529.976C288.264+529.395+288.717+528.951+289.278+528.698L286.249+518.836C285.004+519.054+283.739+518.325+283.21+517.086L280.841+517.813C280.666+517.865+280.488+517.769+280.435+517.598C280.382+517.426+280.478+517.244+280.65+517.192L283.314+516.375C283.486+516.321+283.667+516.419+283.72+516.59C284.086+517.781+285.275+518.478+286.374+518.141C286.545+518.086+286.727+518.185+286.78+518.356L289.989+528.8C290.014+528.883+290.006+528.972+289.966+529.048C289.926+529.124+289.857+529.181+289.774+529.206C289.247+529.368+288.818+529.742+288.567+530.261C288.312+530.787+288.27+531.398+288.448+531.98C288.501+532.152+288.405+532.334+288.233+532.386L258.579+541.495C258.547+541.501+258.515+541.506+258.483+541.506Z" opacity="1" fill="#472b29"/>
<path d="M276.774+519.045C276.635+519.045+276.506+518.955+276.463+518.816C276.41+518.644+276.506+518.462+276.678+518.41L277.175+518.258C277.348+518.203+277.528+518.302+277.581+518.473C277.634+518.645+277.538+518.827+277.366+518.879L276.869+519.031C276.837+519.04+276.805+519.045+276.774+519.045Z" opacity="1" fill="#472b29"/>
<path d="M269.496+524.218C266.891+525.018+265.428+527.778+266.228+530.383C267.028+532.988+269.788+534.451+272.393+533.651C274.998+532.851+276.461+530.091+275.661+527.486C274.861+524.881+272.101+523.418+269.496+524.218Z" opacity="1" fill="#068e8a"/>
<path d="M270.95+534.191C268.7+534.191+266.614+532.735+265.92+530.476C265.507+529.133+265.642+527.71+266.3+526.469C266.958+525.228+268.059+524.317+269.403+523.905C270.745+523.491+272.169+523.627+273.41+524.285C274.651+524.943+275.562+526.045+275.974+527.388C276.387+528.731+276.252+530.154+275.594+531.395C274.936+532.636+273.835+533.547+272.491+533.959C271.978+534.116+271.459+534.191+270.95+534.191ZM270.953+524.32C270.498+524.32+270.04+524.388+269.593+524.526C268.416+524.887+267.45+525.685+266.874+526.773C266.298+527.861+266.179+529.108+266.541+530.285C267.287+532.715+269.87+534.08+272.3+533.338C273.477+532.977+274.442+532.179+275.019+531.091C275.596+530.003+275.714+528.756+275.352+527.579L275.352+527.579C274.991+526.401+274.192+525.435+273.105+524.859C272.431+524.501+271.695+524.32+270.953+524.32Z" opacity="1" fill="#472b29"/>
<path d="M261.226+530.018C260.403+530.27+259.941+531.142+260.194+531.964C260.447+532.787+261.318+533.249+262.141+532.996C262.964+532.744+263.426+531.872+263.174+531.049C262.921+530.227+262.049+529.765+261.226+530.018Z" opacity="1" fill="#068e8a"/>
<path d="M261.683+533.388C261.38+533.388+261.079+533.314+260.804+533.168C260.36+532.933+260.033+532.538+259.886+532.058C259.581+531.065+260.141+530.009+261.133+529.704C261.615+529.556+262.124+529.605+262.568+529.84C263.012+530.075+263.339+530.471+263.486+530.951L263.486+530.951C263.634+531.432+263.586+531.942+263.35+532.387C263.115+532.831+262.72+533.157+262.239+533.304C262.056+533.361+261.869+533.388+261.683+533.388ZM261.687+530.271C261.565+530.271+261.443+530.289+261.323+530.326C260.673+530.526+260.307+531.218+260.506+531.867C260.603+532.182+260.816+532.44+261.107+532.595C261.399+532.749+261.733+532.782+262.046+532.684C262.361+532.587+262.619+532.374+262.774+532.083C262.929+531.792+262.96+531.458+262.863+531.144L262.863+531.144C262.766+530.829+262.553+530.57+262.262+530.415C262.082+530.319+261.886+530.271+261.687+530.271Z" opacity="1" fill="#472b29"/>
<path d="M279.595+524.377C278.772+524.629+278.31+525.501+278.563+526.324C278.816+527.146+279.688+527.608+280.51+527.355C281.333+527.103+281.795+526.231+281.543+525.408C281.29+524.586+280.418+524.124+279.595+524.377Z" opacity="1" fill="#068e8a"/>
<path d="M280.052+527.745C279.749+527.745+279.448+527.671+279.173+527.525C278.729+527.29+278.402+526.895+278.255+526.415C277.95+525.422+278.509+524.366+279.502+524.061C279.985+523.913+280.494+523.962+280.937+524.197C281.381+524.433+281.708+524.828+281.855+525.308C282.003+525.789+281.955+526.298+281.719+526.743C281.484+527.187+281.089+527.514+280.609+527.661C280.425+527.718+280.238+527.745+280.052+527.745ZM280.057+524.628C279.935+524.628+279.813+524.646+279.693+524.683C279.043+524.883+278.676+525.575+278.876+526.224C278.973+526.539+279.186+526.797+279.477+526.952C279.768+527.106+280.101+527.139+280.416+527.041C281.066+526.841+281.433+526.15+281.233+525.501L281.233+525.501C281.136+525.186+280.923+524.927+280.631+524.772C280.452+524.676+280.255+524.628+280.057+524.628ZM270.246+529.722C270.588+530.474+271.07+530.743+271.692+530.527C271.954+530.436+272.138+530.29+272.245+530.09C272.352+529.89+272.369+529.649+272.297+529.367C272.251+529.187+272.293+529.075+272.422+529.03C272.578+528.976+272.686+529.036+272.746+529.211C272.867+529.56+272.842+529.896+272.672+530.218C272.501+530.541+272.198+530.778+271.762+530.929C270.893+531.23+270.219+530.886+269.74+529.897L269.463+529.999C269.341+530.041+269.262+530.008+269.224+529.897C269.183+529.779+269.22+529.701+269.333+529.661L269.601+529.568L269.567+529.471C269.527+529.357+269.5+529.273+269.486+529.219L269.226+529.316C269.104+529.358+269.025+529.324+268.986+529.214C268.944+529.093+268.98+529.012+269.093+528.973L269.105+528.969L269.405+528.878C269.217+527.834+269.542+527.167+270.38+526.876C270.778+526.738+271.141+526.778+271.467+526.996C271.454+526.983+271.436+526.943+271.412+526.875L271.382+526.808C271.377+526.793+271.371+526.782+271.365+526.776L271.361+526.764C271.316+526.635+271.354+526.549+271.476+526.507C271.605+526.462+271.697+526.519+271.752+526.679C271.776+526.748+271.803+526.851+271.834+526.989C271.864+527.123+271.89+527.224+271.914+527.292C271.938+527.361+271.98+527.458+272.041+527.586C272.079+527.67+272.103+527.728+272.114+527.758C272.173+527.928+272.135+528.038+271.998+528.085C271.857+528.134+271.756+528.067+271.693+527.885C271.597+527.608+271.442+527.412+271.228+527.297C271.014+527.182+270.776+527.17+270.514+527.261C269.926+527.465+269.72+527.949+269.896+528.712L270.708+528.424C270.841+528.378+270.926+528.41+270.965+528.52C271.006+528.638+270.963+528.718+270.838+528.762L270.821+528.768L269.986+529.045L270.107+529.392L270.945+529.107C271.078+529.061+271.163+529.093+271.202+529.203C271.244+529.324+271.202+529.407+271.077+529.45L271.06+529.456L270.246+529.722Z" opacity="1" fill="#472b29"/>
<path d="M291.848+528.297C288.723+528.297+286.19+530.831+286.19+533.955C286.19+537.08+288.723+539.613+291.848+539.613C294.973+539.613+297.506+537.08+297.506+533.955C297.506+530.831+294.973+528.297+291.848+528.297Z" opacity="1" fill="#fbcd59"/>
<path d="M291.848+540.113C288.452+540.113+285.69+537.35+285.69+533.955C285.69+530.56+288.452+527.798+291.848+527.798C295.244+527.798+298.006+530.56+298.006+533.955C298.006+537.35+295.243+540.113+291.848+540.113ZM291.848+528.797C289.004+528.797+286.69+531.11+286.69+533.954C286.69+536.799+289.004+539.112+291.848+539.112C294.692+539.112+297.006+536.799+297.006+533.954C297.005+531.111+294.691+528.797+291.848+528.797Z" opacity="1" fill="#472b29"/>
<path d="M291.847+530.256C289.803+530.255+288.146+531.912+288.146+533.955C288.146+535.999+289.803+537.656+291.847+537.654C293.891+537.656+295.548+535.999+295.548+533.955C295.548+531.912+293.891+530.255+291.847+530.256Z" opacity="1" fill="#f1bc19"/>
<path d="M291.848+537.904C289.67+537.904+287.899+536.133+287.899+533.955C287.899+531.777+289.67+530.006+291.848+530.006C294.026+530.006+295.797+531.777+295.797+533.955C295.797+536.133+294.025+537.904+291.848+537.904ZM291.848+530.505C289.946+530.505+288.399+532.052+288.399+533.954C288.399+535.856+289.946+537.403+291.848+537.403C293.75+537.403+295.297+535.856+295.297+533.954C295.297+532.052+293.749+530.505+291.848+530.505Z" opacity="1" fill="#472b29"/>
<path d="M283.492+534.801C280.366+534.8+277.831+537.333+277.831+540.459C277.831+543.586+280.366+546.119+283.492+546.117C286.618+546.119+289.153+543.586+289.153+540.459C289.153+537.333+286.618+534.8+283.492+534.801Z" opacity="1" fill="#fbcd59"/>
<path d="M283.492+546.617C280.096+546.617+277.334+543.854+277.334+540.459C277.334+537.064+280.096+534.302+283.492+534.302C286.888+534.302+289.65+537.064+289.65+540.459C289.65+543.854+286.887+546.617+283.492+546.617ZM283.492+535.301C280.648+535.301+278.334+537.614+278.334+540.458C278.334+543.303+280.648+545.616+283.492+545.616C286.336+545.616+288.65+543.303+288.65+540.458C288.649+537.615+286.335+535.301+283.492+535.301Z" opacity="1" fill="#472b29"/>
<path d="M283.492+536.76C281.448+536.759+279.791+538.416+279.791+540.459C279.791+542.503+281.448+544.16+283.492+544.158C285.536+544.16+287.193+542.503+287.193+540.459C287.193+538.416+285.536+536.759+283.492+536.76Z" opacity="1" fill="#f1bc19"/>
<path d="M283.492+544.408C281.314+544.408+279.543+542.637+279.543+540.459C279.543+538.281+281.314+536.51+283.492+536.51C285.67+536.51+287.441+538.281+287.441+540.459C287.441+542.637+285.669+544.408+283.492+544.408ZM283.492+537.009C281.59+537.009+280.043+538.556+280.043+540.458C280.043+542.36+281.59+543.907+283.492+543.907C285.394+543.907+286.941+542.36+286.941+540.458C286.941+538.556+285.393+537.009+283.492+537.009Z" opacity="1" fill="#472b29"/>
<path d="M282.611+540.877C282.674+541.562+282.98+541.904+283.528+541.904C283.758+541.904+283.943+541.84+284.082+541.711C284.221+541.583+284.3+541.398+284.32+541.157C284.333+541.003+284.397+540.927+284.51+540.927C284.647+540.927+284.716+541.004+284.716+541.157C284.716+541.464+284.605+541.722+284.383+541.928C284.161+542.135+283.858+542.239+283.473+542.239C282.708+542.239+282.272+541.785+282.165+540.876L281.92+540.881C281.813+540.881+281.76+540.833+281.76+540.736C281.76+540.632+281.81+540.581+281.91+540.581L282.146+540.581L282.146+540.496C282.146+540.396+282.148+540.322+282.151+540.275L281.921+540.28C281.814+540.28+281.761+540.231+281.761+540.134C281.761+540.027+281.811+539.974+281.911+539.974L281.921+539.974L282.182+539.984C282.319+539.112+282.756+538.676+283.495+538.676C283.846+538.676+284.12+538.806+284.317+539.067C284.31+539.054+284.307+539.017+284.307+538.957L284.302+538.897C284.302+538.884+284.3+538.874+284.297+538.867L284.297+538.857C284.297+538.744+284.35+538.687+284.457+538.687C284.571+538.687+284.627+538.757+284.627+538.897C284.627+538.957+284.62+539.046+284.607+539.163C284.594+539.276+284.587+539.363+284.587+539.423C284.587+539.483+284.594+539.572+284.607+539.689C284.614+539.766+284.617+539.817+284.617+539.844C284.617+539.994+284.557+540.069+284.437+540.069C284.313+540.069+284.251+539.989+284.251+539.828C284.251+539.584+284.182+539.388+284.046+539.239C283.909+539.091+283.725+539.016+283.495+539.016C282.977+539.016+282.683+539.34+282.613+539.988L283.329+539.983C283.446+539.983+283.505+540.032+283.505+540.128C283.505+540.232+283.45+540.283+283.34+540.283L283.325+540.283L282.593+540.273L282.593+540.579L283.329+540.584C283.446+540.584+283.505+540.633+283.505+540.73C283.505+540.837+283.45+540.89+283.34+540.89L283.325+540.89L282.611+540.877ZM290.955+534.373C291.018+535.058+291.324+535.4+291.872+535.4C292.102+535.4+292.287+535.336+292.426+535.207C292.565+535.079+292.644+534.894+292.664+534.653C292.677+534.499+292.741+534.423+292.854+534.423C292.991+534.423+293.06+534.5+293.06+534.653C293.06+534.96+292.949+535.218+292.727+535.424C292.505+535.631+292.202+535.735+291.817+535.735C291.052+535.735+290.616+535.281+290.509+534.372L290.264+534.377C290.157+534.377+290.104+534.329+290.104+534.232C290.104+534.128+290.154+534.077+290.254+534.077L290.49+534.077L290.49+533.992C290.49+533.892+290.492+533.818+290.495+533.771L290.265+533.776C290.158+533.776+290.105+533.727+290.105+533.63C290.105+533.523+290.155+533.47+290.255+533.47L290.265+533.47L290.526+533.48C290.663+532.608+291.1+532.172+291.839+532.172C292.19+532.172+292.464+532.302+292.661+532.563C292.654+532.55+292.651+532.513+292.651+532.453L292.646+532.393C292.646+532.38+292.644+532.37+292.641+532.363L292.641+532.353C292.641+532.24+292.694+532.183+292.801+532.183C292.915+532.183+292.971+532.253+292.971+532.393C292.971+532.453+292.964+532.542+292.951+532.659C292.938+532.772+292.931+532.859+292.931+532.919C292.931+532.979+292.938+533.068+292.951+533.185C292.958+533.262+292.961+533.313+292.961+533.34C292.961+533.49+292.901+533.565+292.781+533.565C292.657+533.565+292.595+533.485+292.595+533.324C292.595+533.08+292.526+532.884+292.39+532.735C292.253+532.587+292.069+532.512+291.839+532.512C291.321+532.512+291.027+532.836+290.957+533.484L291.673+533.479C291.79+533.479+291.849+533.528+291.849+533.624C291.849+533.728+291.794+533.779+291.684+533.779L291.667+533.779L290.935+533.769L290.935+534.075L291.671+534.08C291.788+534.08+291.847+534.129+291.847+534.226C291.847+534.333+291.792+534.386+291.682+534.386L291.667+534.386L290.955+534.373Z" opacity="1" fill="#472b29"/>
<path d="M264.825+551.402C266.708+551.402+268.342+551.402+268.365+551.402C270.475+551.402+272.186+549.728+272.186+547.663C272.186+545.861+270.884+544.358+269.151+544.003C269.171+543.845+269.185+543.686+269.185+543.523C269.185+541.384+267.413+539.65+265.228+539.65C263.938+539.65+262.795+540.257+262.073+541.193C261.888+538.812+259.715+536.975+257.173+537.28C255.314+537.503+253.776+538.909+253.434+540.711C253.324+541.289+253.336+541.85+253.445+542.376C252.947+541.851+252.237+541.52+251.447+541.52C250.001+541.52+248.82+542.622+248.727+544.014C248.07+543.872+247.356+543.881+246.604+544.157C245.166+544.685+244.142+546.01+244.082+547.513C243.997+549.646+245.739+551.402+247.9+551.402C248.064+551.402+248.641+551.402+248.774+551.402L256.708+551.402M258.347+551.402L258.707+551.402" opacity="1" fill="#fdfcef"/>
<path d="M268.365+551.903L264.824+551.903C264.548+551.903+264.324+551.679+264.324+551.403C264.324+551.127+264.548+550.903+264.824+550.903L268.365+550.903C270.196+550.903+271.685+549.45+271.685+547.664C271.685+546.14+270.577+544.806+269.05+544.494C268.794+544.441+268.621+544.2+268.654+543.94C268.672+543.803+268.683+543.665+268.683+543.523C268.683+541.663+267.132+540.15+265.226+540.15C264.134+540.15+263.128+540.641+262.467+541.499C262.34+541.663+262.126+541.73+261.928+541.673C261.73+541.613+261.589+541.439+261.573+541.233C261.494+540.213+261.007+539.289+260.203+538.629C259.374+537.948+258.318+537.65+257.23+537.776C255.584+537.972+254.224+539.217+253.923+540.804C253.829+541.297+253.832+541.792+253.933+542.275C253.978+542.494+253.873+542.716+253.675+542.82C253.478+542.923+253.235+542.883+253.08+542.72C252.651+542.269+252.071+542.02+251.445+542.02C250.276+542.02+249.3+542.911+249.224+544.047C249.214+544.193+249.142+544.325+249.026+544.413C248.91+544.5+248.762+544.535+248.62+544.502C247.981+544.364+247.377+544.404+246.775+544.627C245.513+545.09+244.631+546.258+244.58+547.532C244.545+548.408+244.863+549.24+245.475+549.878C246.11+550.538+246.971+550.902+247.898+550.902L256.706+550.902C256.982+550.902+257.206+551.126+257.206+551.402C257.206+551.678+256.982+551.902+256.706+551.902L247.898+551.902C246.713+551.902+245.567+551.417+244.754+550.57C243.952+549.735+243.535+548.642+243.581+547.493C243.647+545.818+244.792+544.29+246.43+543.687C247.04+543.463+247.672+543.384+248.31+543.443C248.654+542.047+249.939+541.019+251.446+541.019C251.939+541.019+252.422+541.132+252.859+541.342C252.868+541.1+252.896+540.858+252.942+540.615C253.324+538.605+255.039+537.029+257.113+536.782C258.471+536.614+259.797+536.999+260.838+537.853C261.586+538.466+262.117+539.262+262.385+540.155C263.176+539.507+264.171+539.148+265.228+539.148C267.686+539.148+269.685+541.11+269.685+543.521C269.685+543.555+269.685+543.589+269.684+543.624C271.448+544.179+272.687+545.812+272.687+547.662C272.685+550.001+270.747+551.903+268.365+551.903ZM258.707+551.903L258.348+551.903C258.072+551.903+257.848+551.679+257.848+551.403C257.848+551.127+258.072+550.903+258.348+550.903L258.707+550.903C258.983+550.903+259.207+551.127+259.207+551.403C259.207+551.679+258.983+551.903+258.707+551.903Z" opacity="1" fill="#472b29"/>
<path d="M266.657+546.099C266.639+546.099+266.62+546.097+266.601+546.093C266.467+546.062+266.382+545.928+266.413+545.793C266.451+545.626+266.508+545.465+266.582+545.314C267.186+544.09+268.856+543.639+270.304+544.308C270.429+544.366+270.484+544.514+270.426+544.639C270.367+544.765+270.219+544.819+270.094+544.761C268.892+544.205+267.516+544.553+267.031+545.535C266.974+545.65+266.93+545.774+266.901+545.903C266.874+546.021+266.771+546.099+266.657+546.099ZM261.498+551.903L260.391+551.903C260.115+551.903+259.891+551.679+259.891+551.403C259.891+551.127+260.115+550.903+260.391+550.903L261.498+550.903C261.774+550.903+261.998+551.127+261.998+551.403C261.998+551.679+261.775+551.903+261.498+551.903Z" opacity="1" fill="#472b29"/>
</g>
<g opacity="1" class="blinking">
<path d="M443.655+713.584C443.655+700.944+452.395+691+463.501+691C474.608+691+483.345+700.944+483.345+713.584C483.345+726.223+465.512+736.77+467.523+748.213C463.5+748.213+443.655+731.89+443.655+713.584Z" opacity="1" fill="#dd2c00"/>
<path d="M451.593+707.562C451.593+719.003+463.5+730.145+463.5+730.145C463.5+720.991+475.407+716.714+475.407+707.562C475.407+699.979+470.164+694.011+463.5+694.011C456.836+694.011+451.593+699.979+451.593+707.562Z" opacity="1" fill="#ff5722"/>
<path d="M470.116+702.433C470.115+707.562+463.5+710.496+463.5+715.089C463.5+715.089+456.886+709.32+456.886+702.433C456.886+698.632+459.846+695.547+463.501+695.547C467.157+695.547+470.118+698.63+470.116+702.433Z" opacity="1" fill="#ffc107"/>
</g>
<g opacity="1" class="blinking">
<path d="M509.54+713.584C509.54+700.944+518.28+691+529.386+691C540.493+691+549.23+700.944+549.23+713.584C549.23+726.223+531.397+736.77+533.408+748.213C529.385+748.213+509.54+731.89+509.54+713.584Z" opacity="1" fill="#dd2c00"/>
<path d="M517.478+707.562C517.478+719.003+529.385+730.145+529.385+730.145C529.385+720.991+541.292+716.714+541.292+707.562C541.292+699.979+536.049+694.011+529.385+694.011C522.721+694.011+517.478+699.979+517.478+707.562Z" opacity="1" fill="#ff5722"/>
<path d="M536.001+702.433C536+707.562+529.385+710.496+529.385+715.089C529.385+715.089+522.771+709.32+522.771+702.433C522.771+698.632+525.731+695.547+529.386+695.547C533.042+695.547+536.003+698.63+536.001+702.433Z" opacity="1" fill="#ffc107"/>
</g>
<g opacity="1" class="blinking">
<path d="M577.72+713.584C577.72+700.944+586.46+691+597.566+691C608.673+691+617.41+700.944+617.41+713.584C617.41+726.223+599.577+736.77+601.588+748.213C597.565+748.213+577.72+731.89+577.72+713.584Z" opacity="1" fill="#dd2c00"/>
<path d="M585.658+707.562C585.658+719.003+597.565+730.145+597.565+730.145C597.565+720.991+609.472+716.714+609.472+707.562C609.472+699.979+604.229+694.011+597.565+694.011C590.901+694.011+585.658+699.979+585.658+707.562Z" opacity="1" fill="#ff5722"/>
<path d="M604.181+702.433C604.18+707.562+597.565+710.496+597.565+715.089C597.565+715.089+590.951+709.32+590.951+702.433C590.951+698.632+593.911+695.547+597.566+695.547C601.222+695.547+604.183+698.63+604.181+702.433Z" opacity="1" fill="#ffc107"/>
</g>
</g>
</svg>
